<svg xmlns="http://www.w3.org/2000/svg" viewBox="0 0 372 154" role="img" aria-label="Prez">
  <defs>
    <linearGradient id="screen-front" x1="8%" y1="6%" x2="92%" y2="94%">
      <stop offset="0%" stop-color="#72c8f6"/>
      <stop offset="50%" stop-color="#2d8fe9"/>
      <stop offset="100%" stop-color="#0c4da6"/>
    </linearGradient>
    <linearGradient id="e-bar" x1="0%" y1="0%" x2="100%" y2="0%">
      <stop offset="0%" stop-color="#62caf8"/>
      <stop offset="100%" stop-color="#1a6fd4"/>
    </linearGradient>
  </defs>

  <g transform="translate(6 12)">
    <rect x="0" y="12" width="86" height="60" rx="9" fill="#b3ddf9" transform="rotate(-8 43 42)"/>
    <rect x="12" y="6" width="86" height="60" rx="9" fill="#58abea" transform="rotate(-4 55 36)"/>
    <rect x="24" y="0" width="94" height="66" rx="11" fill="url(#screen-front)"/>
    <path fill="#fff" d="M55 20v28l26-14Z"/>
    <rect x="62" y="66" width="13" height="11" rx="1" fill="#0c2340"/>
    <rect x="46" y="75" width="45" height="8" rx="2.5" fill="#0c2340"/>
  </g>

  <g fill="#0c2340" font-family="'DM Sans', system-ui, -apple-system, sans-serif" font-weight="700" font-size="88">
    <text x="128" y="106">P</text>
    <text x="172" y="106">R</text>
    <text x="298" y="106">Z</text>
  </g>

  <g fill="#0c2340">
    <rect x="214" y="30" width="15" height="80" rx="1"/>
    <rect x="229" y="30" width="50" height="15" rx="2"/>
    <rect x="229" y="95" width="50" height="15" rx="2"/>
  </g>
  <path fill="url(#e-bar)" d="M233 52h44l-6 19h-38Z"/>
</svg>
